<?xml version="1.0" encoding="utf-8"?>
<!-- Generator: Adobe Illustrator 23.0.2, SVG Export Plug-In . SVG Version: 6.00 Build 0)  -->
<svg version="1.1" id="圖層_1" xmlns="http://www.w3.org/2000/svg" xmlns:xlink="http://www.w3.org/1999/xlink" x="0px" y="0px"
	 viewBox="0 0 146 26" enable-background="new 0 0 146 26" xml:space="preserve">
<g>
	<g>
		<g>
			<path fill="#757575" d="M141.4,5.9V2.7h1.4c0.3,0,0.5,0,0.7,0.1c0.1,0.1,0.3,0.2,0.4,0.3c0.1,0.1,0.1,0.3,0.1,0.5
				c0,0.2-0.1,0.4-0.2,0.6c-0.1,0.2-0.4,0.3-0.7,0.3c0.1,0.1,0.2,0.1,0.3,0.2c0.1,0.1,0.2,0.3,0.4,0.4l0.6,0.9h-0.5l-0.4-0.7
				C143.2,5,143,4.9,143,4.8c-0.1-0.1-0.2-0.2-0.2-0.2c-0.1,0-0.1-0.1-0.2-0.1c0,0-0.1,0-0.2,0h-0.5v1.4H141.4z M141.8,4.1h0.9
				c0.2,0,0.3,0,0.5-0.1c0.1,0,0.2-0.1,0.3-0.2c0.1-0.1,0.1-0.2,0.1-0.3c0-0.2-0.1-0.3-0.2-0.4c-0.1-0.1-0.3-0.1-0.5-0.1h-1V4.1z"/>
		</g>
		<g>
			<path fill="#757575" d="M139.8,4.2c0-1.6,1.3-2.8,2.8-2.8l0,0c1.6,0,2.8,1.3,2.8,2.8l0,0c0,1.6-1.3,2.8-2.8,2.8l0,0
				C141.1,7.1,139.8,5.8,139.8,4.2L139.8,4.2z M140.2,4.2c0,1.3,1.1,2.4,2.4,2.4l0,0c1.3,0,2.4-1.1,2.4-2.4l0,0
				c0-1.3-1.1-2.4-2.4-2.4l0,0C141.3,1.8,140.2,2.9,140.2,4.2L140.2,4.2z"/>
		</g>
	</g>
	<g>
		<path fill="#757575" d="M102.7,25.1h-9.2v-6.4H80.5v6.4h-9.2V6.2c0-1.6,0.6-2.9,1.8-3.9C74.3,1.4,76,1,78.2,1h17.6
			c2.2,0,3.9,0.5,5.1,1.4c1.2,0.9,1.8,2.2,1.8,3.9V25.1z M93.5,14.3v-7H80.5v7H93.5z"/>
		<path fill="#757575" d="M135.8,2.2c-0.9-0.7-2.4-1.1-4.3-1.2l0,0h-0.4c-0.1,0-0.2,0-0.2,0h-16.4l0,0H114c-2.2,0-3.9,0.5-5.1,1.4
			c-1.2,0.9-1.8,2.2-1.8,3.7h0v0.1c0,0,0,0,0,0.1h0v18.9h9.2v-6.3h14.9c4.1,0,6.1-1.6,6.1-4.9V6.2C137.3,4.3,136.8,3,135.8,2.2z
			 M127.9,13.5h-11.7V7.3h11.7V13.5z"/>
		<path fill="#757575" d="M59.7,1L59.7,1h-1.4V15c-0.1,0.1-0.2,0.3-0.5,0.2c0,0-0.2,0-0.3-0.2C56,12.7,50,4.4,48.1,1.8c0,0,0,0,0,0
			h0c0,0-0.1-0.1-0.1-0.1c0,0,0,0,0,0c-0.5-0.4-1.1-0.7-2-0.7h-7.5c-0.9,0-1.7,0.3-2.2,0.8c-0.5,0.5-0.8,1.2-0.8,2.1l0,0v21.3h8.7
			c0,0,0-11.2-0.1-14.5c0-0.2,0.2-0.5,0.9-0.5c0,0,0.3,0,0.4,0.2l0,0c1.7,2.7,12.7,14.8,12.7,14.8h9.1V1H59.7z"/>
	</g>
	<path fill="#757575" d="M20.3,19.5c-0.1-0.1-0.3-0.2-0.4-0.3h-9.7V6.5h12.9v10.8c3.9,1.2,6.5,2.8,8.3,4.2c0.3-0.8,0.5-1.7,0.5-2.7
		V7.1c0-4-2.4-6.2-7.1-6.4v0H24c0,0-0.1,0-0.1,0v0H8.5c-5.3,0-8,2.1-8,6.4v11.8c0,4.3,2.7,6.4,8,6.4H24v0c0.8,0,1.6-0.1,2.3-0.2
		C25,23.2,22.6,21.2,20.3,19.5z"/>
	<path fill="#757575" d="M17.3,16.6c2.9,1.8,8.2,5.5,9.9,8.8h6.6C32.7,23.4,28.9,18.5,17.3,16.6z"/>
</g>
</svg>
